HIERARCHY
ROOT hip
{
  OFFSET 0 0 0
  CHANNELS 6 Xposition Yposition Zposition Zrotation Yrotation Xrotation
  JOINT abdomen
  {
    OFFSET 0 20.6881 -0.73152
    CHANNELS 3 Zrotation Xrotation Yrotation
    JOINT chest
    {
      OFFSET 0 11.7043 -0.48768
      CHANNELS 3 Zrotation Xrotation Yrotation
      JOINT neck
      {
        OFFSET 0 22.1894 -2.19456
        CHANNELS 3 Zrotation Xrotation Yrotation
        JOINT head
        {
          OFFSET -0.24384 7.07133 1.2192
          CHANNELS 3 Zrotation Xrotation Yrotation
          JOINT leftEye
          {
            OFFSET 4.14528 8.04674 8.04672
            CHANNELS 3 Zrotation Xrotation Yrotation
            End Site
            {
              OFFSET 1 0 0
            }
          }
          JOINT rightEye
          {
            OFFSET -3.6576 8.04674 8.04672
            CHANNELS 3 Zrotation Xrotation Yrotation
            End Site
            {
              OFFSET 1 0 0
            }
          }
        }
      }
      JOINT rCollar
      {
        OFFSET -2.68224 19.2634 -4.8768
        CHANNELS 3 Zrotation Xrotation Yrotation
        JOINT rShldr
        {
          OFFSET -8.77824 -1.95073 1.46304
          CHANNELS 3 Zrotation Xrotation Yrotation
          JOINT rForeArm
          {
            OFFSET -28.1742 -1.7115 0.48768
            CHANNELS 3 Zrotation Xrotation Yrotation
            JOINT rHand
            {
              OFFSET -22.5879 0.773209 7.07136
              CHANNELS 3 Zrotation Xrotation Yrotation
              JOINT rThumb1
              {
                OFFSET -1.2192 -0.487915 3.41376
                CHANNELS 3 Zrotation Xrotation Yrotation
                JOINT rThumb2
                {
                  OFFSET -3.37035 -0.52449 3.41376
                  CHANNELS 3 Zrotation Xrotation Yrotation
                  End Site
                  {
                    OFFSET -1.78271 -1.18214 1.43049
                  }
                }
              }
              JOINT rIndex1
              {
                OFFSET -7.75947 0.938293 5.60832
                CHANNELS 3 Zrotation Xrotation Yrotation
                JOINT rIndex2
                {
                  OFFSET -2.54057 -0.884171 1.56538
                  CHANNELS 3 Zrotation Xrotation Yrotation
                  End Site
                  {
                    OFFSET -1.62519 -0.234802 1.16502
                  }
                }
              }
              JOINT rMid1
              {
                OFFSET -8.24714 1.18213 3.41376
                CHANNELS 3 Zrotation Xrotation Yrotation
                JOINT rMid2
                {
                  OFFSET -3.10165 -0.590103 1.0647
                  CHANNELS 3 Zrotation Xrotation Yrotation
                  End Site
                  {
                    OFFSET -2.48547 -0.328903 0.83742
                  }
                }
              }
              JOINT rRing1
              {
                OFFSET -8.82822 0.546677 1.51678
                CHANNELS 3 Zrotation Xrotation Yrotation
                JOINT rRing2
                {
                  OFFSET -2.60934 -0.819778 -0.0198488
                  CHANNELS 3 Zrotation Xrotation Yrotation
                  End Site
                  {
                    OFFSET -2.33842 -0.294052 0.168128
                  }
                }
              }
              JOINT rPinky1
              {
                OFFSET -8.27202 -0.0477905 -0.4584
                CHANNELS 3 Zrotation Xrotation Yrotation
                JOINT rPinky2
                {
                  OFFSET -1.82734 -0.647385 -0.700984
                  CHANNELS 3 Zrotation Xrotation Yrotation
                  End Site
                  {
                    OFFSET -1.69225 -0.51767 -0.607171
                  }
                }
              }
            }
          }
        }
      }
      JOINT lCollar
      {
        OFFSET 2.68224 19.2634 -4.8768
        CHANNELS 3 Zrotation Xrotation Yrotation
        JOINT lShldr
        {
          OFFSET 8.77824 -1.95073 1.46304
          CHANNELS 3 Zrotation Xrotation Yrotation
          JOINT lForeArm
          {
            OFFSET 28.1742 -1.7115 0.48768
            CHANNELS 3 Zrotation Xrotation Yrotation
            JOINT lHand
            {
              OFFSET 22.5879 0.773209 7.07136
              CHANNELS 3 Zrotation Xrotation Yrotation
              JOINT lThumb1
              {
                OFFSET 1.2192 -0.487915 3.41376
                CHANNELS 3 Zrotation Xrotation Yrotation
                JOINT lThumb2
                {
                  OFFSET 3.37035 -0.52449 3.41376
                  CHANNELS 3 Zrotation Xrotation Yrotation
                  End Site
                  {
                    OFFSET 1.78271 -1.18214 1.43049
                  }
                }
              }
              JOINT lIndex1
              {
                OFFSET 7.75947 0.938293 5.60832
                CHANNELS 3 Zrotation Xrotation Yrotation
                JOINT lIndex2
                {
                  OFFSET 2.54057 -0.884171 1.56538
                  CHANNELS 3 Zrotation Xrotation Yrotation
                  End Site
                  {
                    OFFSET 1.62519 -0.234802 1.16502
                  }
                }
              }
              JOINT lMid1
              {
                OFFSET 8.24714 1.18213 3.41376
                CHANNELS 3 Zrotation Xrotation Yrotation
                JOINT lMid2
                {
                  OFFSET 3.10165 -0.590103 1.0647
                  CHANNELS 3 Zrotation Xrotation Yrotation
                  End Site
                  {
                    OFFSET 2.48547 -0.328903 0.83742
                  }
                }
              }
              JOINT lRing1
              {
                OFFSET 8.82822 0.546677 1.51678
                CHANNELS 3 Zrotation Xrotation Yrotation
                JOINT lRing2
                {
                  OFFSET 2.60934 -0.819778 -0.0198488
                  CHANNELS 3 Zrotation Xrotation Yrotation
                  End Site
                  {
                    OFFSET 2.33842 -0.294052 0.168128
                  }
                }
              }
              JOINT lPinky1
              {
                OFFSET 8.27202 -0.0477905 -0.4584
                CHANNELS 3 Zrotation Xrotation Yrotation
                JOINT lPinky2
                {
                  OFFSET 1.82734 -0.647385 -0.700984
                  CHANNELS 3 Zrotation Xrotation Yrotation
                  End Site
                  {
                    OFFSET 1.69225 -0.51767 -0.607171
                  }
                }
              }
            }
          }
        }
      }
    }
  }
  JOINT rButtock
  {
    OFFSET -8.77824 4.35084 1.2192
    CHANNELS 3 Zrotation Xrotation Yrotation
    JOINT rThigh
    {
      OFFSET 0 -1.70687 -2.19456
      CHANNELS 3 Zrotation Xrotation Yrotation
      JOINT rShin
      {
        OFFSET 0 -36.8199 0.73152
        CHANNELS 3 Zrotation Xrotation Yrotation
        JOINT rFoot
        {
          OFFSET 0.73152 -45.1104 -5.12064
          CHANNELS 3 Zrotation Xrotation Yrotation
          End Site
          {
            OFFSET -1.1221 -3.69964 12.103
          }
        }
      }
    }
  }
  JOINT lButtock
  {
    OFFSET 8.77824 4.35084 1.2192
    CHANNELS 3 Zrotation Xrotation Yrotation
    JOINT lThigh
    {
      OFFSET 0 -1.70687 -2.19456
      CHANNELS 3 Zrotation Xrotation Yrotation
      JOINT lShin
      {
        OFFSET 0 -36.8199 0.73152
        CHANNELS 3 Zrotation Xrotation Yrotation
        JOINT lFoot
        {
          OFFSET -0.73152 -45.1104 -5.12064
          CHANNELS 3 Zrotation Xrotation Yrotation
          End Site
          {
            OFFSET 1.1221 -3.69964 12.103
          }
        }
      }
    }
  }
}
MOTION
Frames:	6
Frame Time:	0.00833333
39.5791 84.278 -264.764 0.0 0.0 0.0 -1.20515 -0.00379103 -0.0330418 -0.332191 -0.00228082 -0.0575422 1.19671e-14 1.59028e-15 1.2424e-16 3.6022e-14 1.59028e-14 3.9291e-16 -0.0 0.0 0.0 -0.0 0.0 0.0 6.16108e-15 -2.05773e-17 9.93923e-17 1.27632e-13 -1.73937e-16 2.98177e-15 2.175e-12 -6.66326e-13 5.08889e-14 2.49984e-11 5.92701e-13 2.48083e-13 5.8953e-11 -1.63266e-13 6.42472e-13 1.01799e-10 -2.8943e-13 1.0965e-12 5.89567e-11 -1.64196e-13 6.26569e-13 7.73091 5.47488 0.417314 5.89519e-11 -1.63699e-13 6.39292e-13 2.90554 0.965183 0.102902 5.89547e-11 -1.636e-13 6.36111e-13 10.2786 0.731801 0.0259123 5.89438e-11 -1.60618e-13 6.42472e-13 2.22167 -0.733487 -0.20892 6.06457e-15 -1.90243e-17 0.0 1.24896e-13 -3.66509e-16 5.96354e-16 2.18708e-12 6.41478e-13 -1.90833e-14 2.49945e-11 -7.17961e-13 3.11694e-13 5.89741e-11 -1.66323e-13 6.3293e-13 1.01856e-10 -2.8625e-13 1.10047e-12 5.8973e-11 -1.68172e-13 6.39292e-13 -7.73091 5.47488 -0.417314 5.89758e-11 -1.67575e-13 6.2975e-13 -2.90554 0.965183 -0.102902 5.89684e-11 -1.66283e-13 6.38496e-13 -10.2786 0.731801 -0.0259123 5.8979e-11 -1.61016e-13 6.36111e-13 -2.22167 -0.733487 0.20892 -2.03217e-16 0.0 -3.88251e-19 -0.398403 -1.9209 -0.0104535 -0.00935608 -2.07854 -0.0773247 -0.515508 3.9968 0.140797 2.03217e-16 0.0 3.88251e-19 -1.43374 -5.89302 0.127745 -0.000949278 5.11651 -0.0408569 0.531019 0.773983 -0.0763635
38.2408 80.6929 -269.827 -6.4821 5.271 17.2481 1.5671 3.97693 1.75603 -1.16602 -2.5011 0.411579 -1.14733 -2.06499 -1.33595 0.197012 -4.73206 -2.14403 -0.0 0.0 0.0 -0.0 0.0 0.0 7.09508e-14 -1.09747e-13 -1.01644e-15 21.5122 11.7666 -0.443007 -24.0087 -21.8875 14.7309 0.00322945 -1.26111 -0.177082 5.52045e-10 6.03665e-09 -1.38895e-09 9.59449e-10 1.04237e-08 -2.40067e-09 5.52047e-10 6.03666e-09 -1.38896e-09 7.73091 5.47488 0.417314 5.52043e-10 6.03666e-09 -1.38895e-09 2.90554 0.965183 0.102902 5.52047e-10 6.03666e-09 -1.38896e-09 10.2786 0.731801 0.0259123 5.52039e-10 6.03666e-09 -1.38895e-09 2.22167 -0.733487 -0.20892 7.08723e-14 -1.0974e-13 -1.14651e-15 -22.6008 11.8347 11.8552 22.4263 -20.2934 -14.9764 -0.0528709 -5.11111 0.708082 1.34747e-10 4.27417e-10 3.9698e-10 2.27093e-10 7.326e-10 6.87614e-10 1.34746e-10 4.27417e-10 3.96988e-10 -7.73091 5.47488 -0.417314 1.34749e-10 4.27416e-10 3.96978e-10 -2.90554 0.965183 -0.102902 1.34741e-10 4.27417e-10 3.96985e-10 -10.2786 0.731801 -0.0259123 1.34752e-10 4.2742e-10 3.9698e-10 -2.22167 -0.733487 0.20892 -2.03217e-16 0.0 -3.88251e-19 2.22266 -3.48468 -0.326033 -0.0593879 13.7266 0.0938469 -0.497019 10.3064 -0.58692 2.03217e-16 0.0 3.88251e-19 -0.830577 -22.1429 2.64633 0.298354 20.086 -0.0929453 -0.100799 1.57121 -4.62381
38.4193 80.4195 -266.994 -5.8623 5.5681 16.7405 4.27627 8.15845 3.70093 -2.00409 -5.13452 0.919243 -2.46097 -4.24257 -2.75983 0.00453404 -9.71635 -4.47465 -0.0 0.0 0.0 -0.0 0.0 0.0 1.43248e-13 -2.35376e-13 -3.6713e-15 44.4009 24.2528 -0.890745 -34.7165 -39.9216 37.7965 -0.00183656 -2.59014 -0.363993 1.12461e-09 1.28601e-08 -3.01321e-09 1.9554e-09 2.22052e-08 -5.20798e-09 1.12461e-09 1.28601e-08 -3.01323e-09 7.73091 5.47488 0.417314 1.12461e-09 1.28601e-08 -3.01322e-09 2.90554 0.965183 0.102902 1.12461e-09 1.28601e-08 -3.01322e-09 10.2786 0.731801 0.0259123 1.12461e-09 1.28601e-08 -3.01322e-09 2.22167 -0.733487 -0.20892 1.43189e-13 -2.35364e-13 -3.83592e-15 -52.0413 22.6386 26.1137 32.7398 -36.7456 -37.0346 0.0310038 -10.5426 1.47996 2.36682e-10 9.43902e-10 8.85885e-10 3.96299e-10 1.61755e-09 1.53449e-09 2.36682e-10 9.43904e-10 8.85893e-10 -7.73091 5.47488 -0.417314 2.36684e-10 9.43901e-10 8.85884e-10 -2.90554 0.965183 -0.102902 2.36676e-10 9.43902e-10 8.85889e-10 -10.2786 0.731801 -0.0259123 2.36688e-10 9.43902e-10 8.85881e-10 -2.22167 -0.733487 0.20892 -2.03217e-16 0.0 -3.88251e-19 5.0573 -4.98716 -0.609895 -0.223524 30.2004 0.30743 -0.295692 17.0534 -1.38208 2.03217e-16 0.0 3.88251e-19 1.85461 -39.337 6.39243 0.651684 35.8818 -0.167007 -0.606349 2.56631 -9.45895
38.6194 80.1275 -264.17 -5.1441 5.8076 16.3253 6.35315 11.8917 5.43854 -2.71007 -7.49685 1.36028 -3.73206 -6.18145 -4.0287 -0.497026 -14.1154 -6.61062 -0.0 0.0 0.0 -0.0 0.0 0.0 2.0053e-13 -3.292e-13 -3.24811e-15 65.1866 35.2903 -1.59409 -30.8941 -44.3259 66.3522 -0.0137407 -3.78317 -0.532277 1.53823e-09 1.81103e-08 -4.16813e-09 2.67475e-09 3.12716e-08 -7.2042e-09 1.53823e-09 1.81103e-08 -4.16814e-09 7.73091 5.47488 0.417314 1.53823e-09 1.81103e-08 -4.16814e-09 2.90554 0.965183 0.102902 1.53823e-09 1.81103e-08 -4.16814e-09 10.2786 0.731801 0.0259123 1.53823e-09 1.81103e-08 -4.16814e-09 2.22167 -0.733487 -0.20892 2.00488e-13 -3.29183e-13 -3.43952e-15 -83.1181 29.0531 40.7567 30.6186 -41.3262 -63.1807 0.232169 -15.3238 2.19383 2.86292e-10 1.28259e-09 1.18968e-09 4.77568e-10 2.19837e-09 2.06064e-09 2.86293e-10 1.28259e-09 1.18968e-09 -7.73091 5.47488 -0.417314 2.86295e-10 1.28258e-09 1.18968e-09 -2.90554 0.965183 -0.102902 2.86286e-10 1.28258e-09 1.18968e-09 -10.2786 0.731801 -0.0259123 2.86298e-10 1.28258e-09 1.18967e-09 -2.22167 -0.733487 0.20892 -2.03217e-16 0.0 -3.88251e-19 7.4128 -6.61148 -0.961793 -0.531355 45.3354 0.608931 0.0566211 22.9122 -2.18579 2.03217e-16 0.0 3.88251e-19 7.31102 -54.0908 12.1641 1.02378 50.0246 -0.280935 -0.988696 3.09026 -13.7339
38.7871 79.838 -261.307 -4.5207 5.6832 15.8014 7.40177 14.5514 6.55681 -3.17659 -9.18343 1.62437 -4.69002 -7.53669 -4.89005 -0.980321 -17.131 -8.08656 -0.0 0.0 0.0 -0.0 0.0 0.0 2.20277e-13 -3.43509e-13 4.87022e-15 80.4477 42.7037 -2.81247 -28.1876 -39.2752 82.6324 -0.0264363 -4.63633 -0.653034 1.55447e-09 1.94276e-08 -4.14967e-09 2.70262e-09 3.35504e-08 -7.17265e-09 1.55447e-09 1.94276e-08 -4.14969e-09 7.73091 5.47488 0.417314 1.55447e-09 1.94277e-08 -4.14968e-09 2.90554 0.965183 0.102902 1.55448e-09 1.94276e-08 -4.14968e-09 10.2786 0.731801 0.0259123 1.55448e-09 1.94276e-08 -4.14968e-09 2.22167 -0.733487 -0.20892 2.20244e-13 -3.43491e-13 4.67144e-15 -106.686 31.1249 51.1091 28.3734 -37.4718 -79.4998 0.438484 -18.4889 2.69355 2.05091e-10 1.17677e-09 1.03068e-09 3.3899e-10 2.0189e-09 1.78497e-09 2.05091e-10 1.17677e-09 1.03069e-09 -7.73091 5.47488 -0.417314 2.05094e-10 1.17677e-09 1.03068e-09 -2.90554 0.965183 -0.102902 2.05085e-10 1.17677e-09 1.03068e-09 -10.2786 0.731801 -0.0259123 2.05096e-10 1.17676e-09 1.03067e-09 -2.22167 -0.733487 0.20892 -2.03217e-16 0.0 -3.88251e-19 8.57983 -8.54019 -1.4838 -0.988039 57.1243 1.03153 0.413783 26.562 -2.87962 2.03217e-16 0.0 3.88251e-19 14.1115 -63.2465 19.0131 1.36058 60.0354 -0.437568 -1.45804 2.53575 -16.5863
39.0078 79.459 -258.5 -3.8026 5.8195 15.37 7.38376 15.7541 6.7564 -3.40074 -9.92141 1.63872 -5.13268 -8.0679 -5.17575 -1.03231 -18.2378 -8.52102 -0.0 0.0 0.0 -0.0 0.0 0.0 1.77671e-13 -2.16906e-13 3.11556e-14 87.7741 45.0413 -4.60001 -28.2912 -35.4973 85.6391 -0.0330143 -5.01888 -0.707304 8.74381e-10 1.42113e-08 -2.02242e-09 1.51852e-09 2.45547e-08 -3.49706e-09 8.74381e-10 1.42113e-08 -2.02244e-09 7.73091 5.47488 0.417314 8.74382e-10 1.42114e-08 -2.02243e-09 2.90554 0.965183 0.102902 8.74388e-10 1.42113e-08 -2.02243e-09 10.2786 0.731801 0.0259123 8.74382e-10 1.42113e-08 -2.02243e-09 2.22167 -0.733487 -0.20892 1.77641e-13 -2.1689e-13 3.09836e-14 -115.81 31.6387 53.8991 28.2905 -34.7153 -84.4354 0.508004 -19.2566 2.82096 -1.46395e-10 2.17806e-10 -3.72509e-11 -2.54493e-10 3.81847e-10 -6.55371e-11 -1.46398e-10 2.17809e-10 -3.72403e-11 -7.73091 5.47488 -0.417314 -1.46393e-10 2.17807e-10 -3.72507e-11 -2.90554 0.965183 -0.102902 -1.46401e-10 2.17807e-10 -3.72499e-11 -10.2786 0.731801 -0.0259123 -1.4639e-10 2.17804e-10 -3.72614e-11 -2.22167 -0.733487 0.20892 -2.03217e-16 0.0 -3.88251e-19 8.1689 -10.767 -2.23647 -1.48476 64.2356 1.49064 0.594096 27.1137 -3.36986 2.03217e-16 0.0 3.88251e-19 15.9785 -65.2925 21.0718 1.55836 64.3185 -0.565244 -2.21264 0.452535 -17.5103
